<?xml version="1.0" encoding="iso-8859-1"?>
<!-- Generator: Adobe Illustrator 19.0.0, SVG Export Plug-In . SVG Version: 6.00 Build 0)  -->
<svg version="1.1" id="Capa_1" xmlns="http://www.w3.org/2000/svg" xmlns:xlink="http://www.w3.org/1999/xlink" x="0px" y="0px"
	 viewBox="0 0 419.84 419.84" style="enable-background:new 0 0 419.84 419.84;" xml:space="preserve">
<g>
	<g>
		<path fill="#458d3c" d="M415.232,106.496c-3.072-2.048-6.656-2.048-9.728-0.512l-86.528,44.544v-15.36c0-28.16-23.04-51.2-51.2-51.2H51.2
			c-28.16,0-51.2,23.04-51.2,51.2v149.504c0,28.16,23.04,51.2,51.2,51.2h216.576c28.16,0,51.2-23.04,51.2-51.2v-15.36l86.528,44.544
			c5.12,2.56,11.264,0,13.312-5.12c0.512-1.536,1.024-3.072,1.024-4.096V115.2C419.84,111.616,418.304,108.032,415.232,106.496z"/>
	</g>
</g>
</svg>
