<svg height="512pt" viewBox="0 0 512 512" width="512pt" xmlns="http://www.w3.org/2000/svg"><path d="m269.824219 298.742188-56.566407-56.566407c-1.1875-1.1875-2.308593-2.421875-3.390624-3.683593l-196.6875 196.6875c-8.5 8.5-13.179688 19.800781-13.179688 31.820312s4.679688 23.320312 13.179688 31.820312 19.800781 13.179688 31.820312 13.179688 23.320312-4.683594 31.820312-13.179688l196.6875-196.6875c-1.261718-1.082031-2.496093-2.203124-3.683593-3.390624zm0 0"/><path d="m388.085938 393.1875c-2.175782-11.824219-7.824219-22.78125-16.390626-31.34375-11.332031-11.332031-26.398437-17.574219-42.425781-17.574219-16.027343 0-31.09375 6.242188-42.425781 17.574219-23.394531 23.394531-23.394531 61.457031 0 84.851562 8.5625 8.566407 19.519531 14.21875 31.339844 16.390626 2.175781 11.820312 7.828125 22.777343 16.390625 31.339843 11.332031 11.332031 26.398437 17.574219 42.425781 17.574219s31.09375-6.242188 42.425781-17.574219 17.574219-26.398437 17.574219-42.425781-6.242188-31.09375-17.574219-42.425781c-8.566406-8.566407-19.519531-14.21875-31.339843-16.386719zm0 0"/><path d="m30.179688 200.179688c-17.542969 17.546874-17.546876 46.09375 0 63.640624 17.546874 17.546876 46.09375 17.542969 63.640624 0 17.542969-17.546874 17.546876-46.09375 0-63.640624-17.546874-17.546876-46.09375-17.542969-63.640624 0zm0 0"/><path d="m127.996094 127.996094c29.242187-29.238282 29.246094-76.820313 0-106.0625-29.242188-29.246094-76.820313-29.242188-106.0625 0-29.242188 29.242187-29.246094 76.820312 0 106.0625 29.242187 29.246094 76.824218 29.242187 106.0625 0zm0 0"/><path d="m512 342c0 8.285156-6.714844 15-15 15s-15-6.714844-15-15 6.714844-15 15-15 15 6.714844 15 15zm0 0"/><path d="m315.785156 287.78125c7.660156 0 14.945313-2.445312 20.960938-6.96875l-105.558594-105.558594c-4.519531 6.015625-6.96875 13.300782-6.96875 20.960938 0 9.347656 3.640625 18.136718 10.25 24.75l56.570312 56.566406c6.609376 6.609375 15.398438 10.25 24.746094 10.25zm0 0"/><path d="m445.640625 220h21.359375c24.8125 0 45-20.1875 45-45s-20.1875-45-45-45h-21.359375l15.101563-15.105469c8.5-8.5 13.183593-19.796875 13.183593-31.820312 0-12.019531-4.683593-23.316407-13.183593-31.816407-17.542969-17.546874-46.09375-17.546874-63.636719 0l-15.105469 15.101563v-21.359375c0-24.8125-20.1875-45-45-45s-45 20.1875-45 45v21.359375l-15.105469-15.101563c-8.496093-8.5-19.796875-13.183593-31.816406-13.183593-12.023437 0-23.320313 4.683593-31.820313 13.183593-17.546874 17.542969-17.546874 46.09375 0 63.636719l183.847657 183.847657c8.5 8.5 19.800781 13.183593 31.820312 13.183593s23.320313-4.683593 31.816407-13.183593c8.5-8.496094 13.183593-19.796876 13.183593-31.816407 0-12.023437-4.683593-23.324219-13.183593-31.820312zm0 0"/></svg>