<?xml version="1.0" encoding="iso-8859-1"?>
<!-- Generator: Adobe Illustrator 19.0.0, SVG Export Plug-In . SVG Version: 6.00 Build 0)  -->
<svg version="1.1" id="Capa_1" xmlns="http://www.w3.org/2000/svg" xmlns:xlink="http://www.w3.org/1999/xlink" x="0px" y="0px"
	 viewBox="0 0 508 508" style="enable-background:new 0 0 508 508;" xml:space="preserve">
<g>
	<g>
		<path d="M483.4,81.9H24.6C11,81.9,0,93,0,106.5v295c0,13.6,11,24.6,24.6,24.6h458.8c13.6,0,24.6-11,24.6-24.6v-295
			C508,93,497,81.9,483.4,81.9z M477.1,98.3L254,284.3L30.8,98.3H477.1z M16.4,400.4V107.6L192,254L16.4,400.4z M30.8,409.7l174-145
			l49.2,41l49.2-41l174,145H30.8z M491.7,400.4L316,254l175.7-146.4V400.4z"/>
	</g>
</g>
<g>
</g>
<g>
</g>
<g>
</g>
<g>
</g>
<g>
</g>
<g>
</g>
<g>
</g>
<g>
</g>
<g>
</g>
<g>
</g>
<g>
</g>
<g>
</g>
<g>
</g>
<g>
</g>
<g>
</g>
</svg>
