<?xml version="1.0" encoding="iso-8859-1"?>
<!-- Generator: Adobe Illustrator 19.0.0, SVG Export Plug-In . SVG Version: 6.00 Build 0)  -->
<svg version="1.1" id="Capa_1" xmlns="http://www.w3.org/2000/svg" xmlns:xlink="http://www.w3.org/1999/xlink" x="0px" y="0px"
	 viewBox="0 0 508 508" style="enable-background:new 0 0 508 508;" xml:space="preserve">
<g>
	<g>
		<path d="M155.7,258.1c-49.7,0-90.1,40.4-90.1,90.1s40.4,90.1,90.1,90.1s90.1-40.4,90.1-90.1S205.4,258.1,155.7,258.1z M155.7,422
			C115,422,82,388.9,82,348.3c0-40.6,33.1-73.7,73.7-73.7c40.6,0,73.7,33.1,73.7,73.7C229.4,388.9,196.3,422,155.7,422z"/>
	</g>
</g>
<g>
	<g>
		<path d="M376.9,77.8c-31.6,0-57.4,25.7-57.4,57.4c0,31.6,25.7,57.4,57.4,57.4c31.6,0,57.4-25.7,57.4-57.4
			C434.3,103.6,408.5,77.8,376.9,77.8z M376.9,176.2c-22.6,0-41-18.4-41-41c0-22.6,18.4-41,41-41c22.6,0,41,18.4,41,41
			C417.9,157.8,399.5,176.2,376.9,176.2z"/>
	</g>
</g>
<g>
	<g>
		<path d="M311.5,382.1v-68l-28.3-9.4c-2-5.3-4.2-10.7-6.7-15.8l13.3-26.7l-48.1-48.1L215,227.4c-5.2-2.6-10.5-4.8-16-6.6l-9.4-28.3
			h-68l-9.4,28.3c-5.4,1.9-10.8,4.1-16,6.6l-26.7-13.3l-48.1,48.1l13.3,26.7c-2.6,5.2-4.8,10.5-6.6,16L0,314.2v68l28.3,9.4
			c1.9,5.4,4.1,10.8,6.6,16l-13.3,26.7l48.1,48.1L96.3,469c5.2,2.6,10.5,4.8,16,6.6l9.4,28.3h68l9.4-28.3c5.4-1.9,10.8-4.1,16-6.6
			l26.7,13.3l48.1-48.1l-13.3-26.7c2.6-5.2,4.8-10.5,6.6-16L311.5,382.1z M270,378.7l-11.9,28.7l11.8,23.6l-31.4,31.4l-23.6-11.8
			l-28.7,11.9l-8.3,25h-44.4l-8.3-25l-28.7-11.9l-23.6,11.8L41.5,431l11.8-23.6l-11.9-28.7l-25-8.3V326l25-8.3L53.3,289l-11.8-23.6
			L72.9,234l23.6,11.8l28.7-11.9l8.3-25h44.4l8.3,25l28.7,11.9l23.6-11.8l31.4,31.4L258.1,289l11.9,28.7l25,8.3v44.4L270,378.7z"/>
	</g>
</g>
<g>
	<g>
		<path d="M508,164.5v-58.6L484.2,98c-1.4-4.1-3.1-8.2-5.1-12.2l11.2-22.5l-41.5-41.5L426.4,33c-4-1.9-8.1-3.6-12.2-5.1l-8-23.8
			h-58.6l-8,23.8c-4.1,1.4-8.2,3.1-12.2,5.1l-22.5-11.3l-41.5,41.5l11.3,22.5c-1.9,4-3.6,8.1-5.1,12.2l-23.8,7.9v58.6l23.8,7.9
			c1.4,4.1,3.1,8.2,5.1,12.2L263.4,207l41.5,41.5l22.5-11.2c4,1.9,8.1,3.6,12.2,5.1l8,23.8h58.6l8-23.8c4.1-1.4,8.2-3.1,12.2-5.1
			l22.5,11.2l41.5-41.5l-11.2-22.5c1.9-4,3.6-8.1,5.1-12.2L508,164.5z M471,159.6l-10.4,25l9.7,19.4l-24.8,24.8l-19.4-9.7l-25,10.4
			l-6.9,20.6h-35l-6.9-20.6l-25-10.4l-19.4,9.7L283.1,204l9.7-19.4l-10.4-25l-20.6-6.9v-35l20.6-6.9l10.4-25l-9.7-19.4l24.8-24.8
			l19.4,9.7l25-10.4l6.9-20.6h35l6.9,20.6l25,10.4l19.4-9.7l24.8,24.8l-9.7,19.4l10.4,25l20.6,6.9v35L471,159.6z"/>
	</g>
</g>
<g>
	<g>
		<rect x="147.5" y="225.3" width="16.4" height="16.4"/>
	</g>
</g>
<g>
	<g>
		<rect x="147.5" y="454.7" width="16.4" height="16.4"/>
	</g>
</g>
<g>
	<g>
		<rect x="228.565" y="258.914" transform="matrix(0.7071 -0.7071 0.7071 0.7071 -119.5312 245.6541)" width="16.4" height="16.4"/>
	</g>
</g>
<g>
	<g>
		<rect x="66.308" y="421.144" transform="matrix(0.7071 -0.7071 0.7071 0.7071 -281.769 178.4373)" width="16.4" height="16.4"/>
	</g>
</g>
<g>
	<g>
		<rect x="262.2" y="340" width="16.4" height="16.4"/>
	</g>
</g>
<g>
	<g>
		<rect x="32.8" y="340" width="16.4" height="16.4"/>
	</g>
</g>
<g>
	<g>
		<rect x="228.567" y="421.162" transform="matrix(0.7071 -0.7071 0.7071 0.7071 -234.2576 293.1767)" width="16.4" height="16.4"/>
	</g>
</g>
<g>
	<g>
		<rect x="66.393" y="258.922" transform="matrix(0.7071 -0.7071 0.7071 0.7071 -167.0355 130.9835)" width="16.4" height="16.4"/>
	</g>
</g>
<g>
</g>
<g>
</g>
<g>
</g>
<g>
</g>
<g>
</g>
<g>
</g>
<g>
</g>
<g>
</g>
<g>
</g>
<g>
</g>
<g>
</g>
<g>
</g>
<g>
</g>
<g>
</g>
<g>
</g>
</svg>
