<?xml version="1.0" standalone="no"?>
<!DOCTYPE svg PUBLIC "-//W3C//DTD SVG 20010904//EN"
 "http://www.w3.org/TR/2001/REC-SVG-20010904/DTD/svg10.dtd">
<svg version="1.0" xmlns="http://www.w3.org/2000/svg"
 width="544.000000pt" height="739.000000pt" viewBox="0 0 544.000000 739.000000"
 preserveAspectRatio="xMidYMid meet">
<metadata>
Created by potrace 1.16, written by Peter Selinger 2001-2019
</metadata>
<g transform="translate(0.000000,739.000000) scale(0.100000,-0.100000)"
fill="#000000" stroke="none">
<path d="M2340 7374 c-217 -33 -477 -109 -687 -200 -56 -24 -105 -44 -109 -44
-14 0 -241 -134 -344 -203 -540 -363 -952 -944 -1121 -1580 -61 -232 -71 -312
-76 -589 -6 -291 2 -359 64 -583 39 -140 161 -477 224 -615 408 -901 1224
-2121 2258 -3372 85 -104 162 -188 171 -188 28 0 460 530 831 1020 352 463
778 1078 999 1440 45 74 98 160 117 190 122 196 376 674 478 900 120 266 247
654 281 853 24 144 16 566 -15 722 -112 584 -383 1092 -793 1491 -132 128
-246 222 -378 311 -103 69 -330 203 -344 203 -4 0 -53 20 -109 44 -216 94
-474 168 -698 201 -141 20 -612 19 -749 -1z m660 -289 c263 -23 486 -86 755
-213 406 -190 738 -475 984 -842 76 -114 189 -314 196 -348 2 -9 19 -54 39
-100 91 -212 154 -473 177 -732 26 -307 -27 -585 -186 -975 -20 -49 -38 -97
-40 -105 -14 -64 -237 -507 -397 -785 -156 -272 -237 -402 -483 -773 -183
-276 -267 -397 -451 -651 -283 -391 -854 -1126 -874 -1126 -20 0 -591 735
-874 1126 -184 254 -268 375 -451 651 -246 371 -327 501 -483 773 -160 278
-383 721 -397 785 -2 8 -20 56 -40 105 -159 390 -212 668 -186 975 23 259 86
520 177 732 20 46 37 91 39 100 7 34 120 234 196 348 338 505 869 872 1469
1015 215 51 535 66 830 40z"/>
<path d="M2578 6449 c-112 -9 -297 -46 -394 -79 -32 -11 -64 -20 -73 -20 -24
0 -225 -100 -321 -159 -238 -148 -474 -389 -612 -625 -103 -174 -186 -399
-224 -601 -27 -141 -27 -458 0 -600 45 -243 176 -546 322 -746 97 -131 269
-304 401 -402 182 -135 467 -262 703 -313 124 -28 556 -28 680 0 236 51 521
179 703 313 230 171 421 396 547 645 80 157 148 351 176 503 26 138 26 470 1
600 -52 266 -153 505 -303 723 -87 125 -315 354 -444 444 -109 77 -349 202
-430 224 -288 77 -350 89 -530 97 -52 3 -143 1 -202 -4z m377 -304 c235 -38
451 -127 645 -264 94 -67 242 -212 316 -310 84 -112 204 -353 244 -491 140
-488 20 -1018 -319 -1407 -169 -194 -422 -359 -670 -437 -251 -79 -651 -79
-902 0 -248 78 -501 243 -670 437 -285 326 -421 767 -365 1182 23 174 65 307
151 480 87 177 166 286 297 411 225 215 487 346 798 399 105 18 365 18 475 0z"/>
</g>
</svg>
