<?xml version="1.0" encoding="iso-8859-1"?>
<!-- Generator: Adobe Illustrator 19.0.0, SVG Export Plug-In . SVG Version: 6.00 Build 0)  -->
<svg version="1.1" id="Capa_1" xmlns="http://www.w3.org/2000/svg" xmlns:xlink="http://www.w3.org/1999/xlink" x="0px" y="0px"
	 viewBox="0 0 508 508" style="enable-background:new 0 0 508 508;" xml:space="preserve">
<g>
	<g>
		<path d="M212.977,49.2v147.5h114.7V49.2H212.977z M311.277,180.3h-81.9V65.5h81.9V180.3z"/>
	</g>
</g>
<g>
	<g>
		<rect x="65.477" y="245.8" width="262.2" height="16.4"/>
	</g>
</g>
<g>
	<g>
		<rect x="65.477" y="311.4" width="221.2" height="16.4"/>
	</g>
</g>
<g>
	<g>
		<rect x="65.477" y="376.9" width="155.7" height="16.4"/>
	</g>
</g>
<g>
	<g>
		<rect x="65.477" y="442.5" width="65.5" height="16.4"/>
	</g>
</g>
<g>
	<g>
		<rect x="147.477" y="442.5" width="49.2" height="16.4"/>
	</g>
</g>
<g>
	<g>
		<path d="M484.378,243.4l-23.2-23.2c-9.3-9.3-25.5-9.3-34.8,0l-49.6,49.6V0h-208.1l-152.3,152.3V508h360.5V385.7l107.5-107.5
			C488.977,273.5,498.078,257.1,484.378,243.4z M163.878,28v119.5h-119.6L163.878,28z M360.477,491.6h-327.7V163.9h147.5V16.4h180.3
			v269.8l-98,98l-14.6,72.4l72.4-14.5l40.1-40.1V491.6z M281.578,388.2l23.2-23.2l34.8,34.8l-23.2,23.2L281.578,388.2z
			 M299.777,429.6l-30.9,6.2l6.2-30.9L299.777,429.6z M351.078,388.2l-34.8-34.8l104.3-104.3l11.6,11.6l-40.6,40.6l11.6,11.6
			l40.6-40.6l11.6,11.6L351.078,388.2z M472.777,266.6l-5.8,5.8l-34.8-34.8l5.8-5.8c3.1-3.1,8.5-3.1,11.6,0l23.2,23.2
			C477.777,260,474.378,265,472.777,266.6z"/>
	</g>
</g>
<g>
</g>
<g>
</g>
<g>
</g>
<g>
</g>
<g>
</g>
<g>
</g>
<g>
</g>
<g>
</g>
<g>
</g>
<g>
</g>
<g>
</g>
<g>
</g>
<g>
</g>
<g>
</g>
<g>
</g>
</svg>
