<?xml version="1.0" encoding="iso-8859-1"?>
<!-- Generator: Adobe Illustrator 19.0.0, SVG Export Plug-In . SVG Version: 6.00 Build 0)  -->
<svg version="1.1" id="Capa_1" xmlns="http://www.w3.org/2000/svg" xmlns:xlink="http://www.w3.org/1999/xlink" x="0px" y="0px"
	 viewBox="0 0 508 508" style="enable-background:new 0 0 508 508;" xml:space="preserve">
<g>
	<g>
		<path d="M112.2,87.8c11.5-9,18.9-23,18.9-38.6C131.1,22.1,109,0,81.9,0C54.8,0,32.8,22.1,32.8,49.2c0,15.7,7.4,29.6,18.9,38.6
			C21.4,99.9,0,129.4,0,163.9v32.8h163.9v-32.8C163.9,129.4,142.4,99.9,112.2,87.8z M49.2,49.2c0-18.1,14.7-32.8,32.8-32.8
			s32.8,14.7,32.8,32.8C114.8,67.3,100.1,82,82,82C63.9,81.9,49.2,67.2,49.2,49.2z M16.4,180.3v-16.4c0-36.1,29.4-65.5,65.5-65.5
			c36.1,0,65.5,29.4,65.5,65.5v16.4H16.4z"/>
	</g>
</g>
<g>
	<g>
		<path d="M456.4,87.8c11.5-9,18.9-23,18.9-38.6c0-27.1-22.1-49.2-49.2-49.2c-27.1,0-49.2,22.1-49.2,49.2c0,15.7,7.4,29.6,18.9,38.6
			c-30.2,12.1-51.6,41.6-51.6,76.1v32.8H508v-32.8C508,129.4,486.6,99.9,456.4,87.8z M393.3,49.2c0-18.1,14.7-32.8,32.8-32.8
			c18.1,0,32.8,14.7,32.8,32.8c0,18.1-14.7,32.8-32.8,32.8C408,81.9,393.3,67.2,393.3,49.2z M360.5,180.3v-16.4
			c0-36.1,29.4-65.5,65.5-65.5c36.1,0,65.5,29.4,65.5,65.5v16.4H360.5z"/>
	</g>
</g>
<g>
	<g>
		<path d="M284.3,399.2c11.5-9,18.9-23,18.9-38.6c0-27.1-22.1-49.2-49.2-49.2s-49.2,22.1-49.2,49.2c0,15.7,7.4,29.6,18.9,38.6
			c-30.2,12.1-51.6,41.6-51.6,76.1V508H336v-32.8C335.9,440.8,314.5,411.2,284.3,399.2z M221.2,360.5c0-18.1,14.7-32.8,32.8-32.8
			c18.1,0,32.8,14.7,32.8,32.8s-14.7,32.8-32.8,32.8S221.2,378.6,221.2,360.5z M319.5,491.6h-131v-16.4c0-36.1,29.4-65.5,65.5-65.5
			c36.1,0,65.5,29.4,65.5,65.5V491.6z"/>
	</g>
</g>
<g>
	<g>
		<polygon points="313.8,125.3 254,185.1 194.2,125.3 182.7,136.9 245.8,200 245.8,295 262.2,295 262.2,200 325.3,136.9 		"/>
	</g>
</g>
<g>
</g>
<g>
</g>
<g>
</g>
<g>
</g>
<g>
</g>
<g>
</g>
<g>
</g>
<g>
</g>
<g>
</g>
<g>
</g>
<g>
</g>
<g>
</g>
<g>
</g>
<g>
</g>
<g>
</g>
</svg>
